# xmcd CD database file
#
# Track frame offsets:
#	150
#	10405
#	21945
#	33673
#	43996
#	53138
#	66257
#	78628
#	89672
#	98034
#
# Disc length: 1524 seconds
#
# Revision: 0
# Processed by: cddbd v1.5.2PL0 Copyright (c) Steve Scherf et al.
# Submitted via: CDex 1.51
#
DISCID=8805f20a
DTITLE=Various Artist - Country Love Standards
DYEAR=1900
DGENRE=Country
TTITLE0=Johnny Cash - The Ways Of A Woman In Love
TTITLE1=Hank Williams - Baby, We're Really In Love
TTITLE2=Merle Haggard - Carolyn
TTITLE3=Conway Twitty - (I Can't Believe) She Gives It All To Me
TTITLE4=George Jones - Love Bug
TTITLE5=Kenny Rogers and The First Edition - Ruby, Don't Take Your Love To Town
TTITLE6=Eddy Arnold - Just A Little Lovin' (Will Go A Long, Long Way)
TTITLE7=Ray Price - I'll Be There (If You Ever Want Me)
TTITLE8=Johnny Rodriguez - That's The Way Love Goes
TTITLE9=Exile - She's Too Good To Be True
EXTD=
EXTT0=
EXTT1=
EXTT2=
EXTT3=
EXTT4=
EXTT5=
EXTT6=
EXTT7=
EXTT8=
EXTT9=
PLAYORDER=
